<svg id="Layer_1" data-name="Layer 1" xmlns="http://www.w3.org/2000/svg" viewBox="0 0 524.66 204.58"><defs><style>.cls-1{fill:#054b77;}.cls-2{fill:#7ea0c3;stroke:#054b77;stroke-miterlimit:10;stroke-width:0.2px;}</style></defs><path class="cls-1" d="M10.73,192.41a.52.52,0,0,0-.48.39l-2.1,6a11.93,11.93,0,0,0-.81,3.39c0,.85.53,1.23,1.57,1.23h.33c.43,0,.58.15.58.34s-.38.32-.72.32c-1,0-3.24-.13-3.76-.13S2.76,204,.77,204C.24,204,0,204,0,203.72s.19-.34.57-.34a6.31,6.31,0,0,0,1,0c2.05-.19,2.87-1.75,3.67-3.76l9.54-25.13c.53-1.38.67-1.61,1-1.61s.43.19,1,1.52c.66,1.57,7.15,18.22,9.68,24.17,1.57,3.77,2.95,4.38,3.62,4.62a4.53,4.53,0,0,0,1.62.24c.34,0,.57.1.57.34s-.19.32-.71.32-4.06,0-7.25-.09c-.9,0-1.2-.08-1.2-.33a.4.4,0,0,1,.34-.33c.19-.1.48-.34.19-1l-3.76-9.58a.44.44,0,0,0-.38-.25Zm8.1-1.66c.19,0,.19-.14.15-.29l-3.77-10.54c-.24-.67-.28-.67-.53,0l-3.57,10.54c-.1.19,0,.29.09.29Z"/><path class="cls-1" d="M38,185.12c0-6.24,0-7.44-.1-8.72s-.43-2-1.86-2.24l-1.14-.09c-.43,0-.62-.14-.62-.34s.28-.33.72-.33c2,0,4.86.14,4.95.14,1.15,0,2.72-.14,4.58-.14,7.15,0,8.58,3.95,8.58,6,0,3.52-2,5.76-4,7.32,3.19,1,7.29,3.88,7.29,8.55,0,4.44-3.58,8.87-10.82,8.87-.76,0-1.71-.11-3-.11s-2.48-.13-2.67-.13c-1.47,0-2.71.13-4.29.13-.43,0-.66-.09-.66-.28s0-.38.66-.38a2.93,2.93,0,0,0,.86-.09c.81-.15,1.1-1.14,1.24-2.29a84.16,84.16,0,0,0,.24-8.72Zm3.72.86c0,.34.09.38.23.48a13,13,0,0,0,2.39.14c2.43,0,3.14-.14,4.05-1.14a5.92,5.92,0,0,0,1.24-3.81c0-3.3-1.48-7-5.53-7a8.34,8.34,0,0,0-1.81.24c-.43.1-.57.19-.57.43Zm0,4.1c0,3,0,8.25,0,8.63.15,2.09.1,2.72,1.53,3.34a9.43,9.43,0,0,0,3.53.62c2,0,5.62-1,5.62-5.39a10,10,0,0,0-4.1-8.3,6.73,6.73,0,0,0-3.24-1,18.39,18.39,0,0,0-3.15,0c-.14,0-.23,0-.23.29Z"/><path class="cls-1" d="M62.2,188.65c0-6.34,4.91-15.82,16.69-15.82,9.43,0,16.63,5.62,16.63,15.2,0,9.11-6.72,16.55-16.87,16.55-11.68,0-16.45-8.68-16.45-15.93m28.84.58c0-9.59-5.91-14.94-12.44-14.94s-12,4.11-12,13.13c0,9.34,5.2,15.53,13.21,15.53C83,203,91,201.33,91,189.23"/><path class="cls-1" d="M130,200.52c0,1.91,0,2-.57,2.25a21.52,21.52,0,0,1-8.78,1.81c-3.09,0-9.1-.25-14-4.29a15.06,15.06,0,0,1-5.14-11.59,15.27,15.27,0,0,1,7.2-13.45,20.88,20.88,0,0,1,10.63-2.42,36,36,0,0,1,6.82.66c.76.15,2.62.38,3.62.44.38,0,.38.19.38.36a52.83,52.83,0,0,0-.34,6.21c0,.67,0,.86-.37.86s-.29-.29-.34-.57a6.26,6.26,0,0,0-.9-3c-1.1-1.57-4.53-3.34-9.87-3.34-2.58,0-5.58.1-8.77,2.52-2.44,1.87-4,5.49-4,10.21a16.49,16.49,0,0,0,4.34,11.06,14.84,14.84,0,0,0,10.82,4.44,11.84,11.84,0,0,0,4.53-.81,1.6,1.6,0,0,0,.81-1.43v-6.87c0-3.15-.24-3.77-1.91-4a9.1,9.1,0,0,0-1.14-.09c-.38,0-.57-.19-.57-.34s.19-.33.71-.33c1.91,0,4.68.09,4.86.09s3-.09,4.3-.09c.48,0,.67.09.67.33s-.15.34-.57.34a4.74,4.74,0,0,0-.82.05c-1.14.14-1.43,1-1.52,2.38s-.1,2.58-.1,4.29Z"/><path class="cls-1" d="M145.31,192.41c-.23,0-.37.16-.46.39l-2.11,6a12.2,12.2,0,0,0-.8,3.39c0,.85.52,1.23,1.57,1.23h.33c.43,0,.57.15.57.34s-.38.32-.71.32c-1,0-3.24-.13-3.77-.13s-2.57.13-4.58.13c-.52,0-.76-.09-.76-.32s.19-.34.57-.34a6.51,6.51,0,0,0,1,0c2-.19,2.85-1.75,3.67-3.76l9.53-25.13c.53-1.38.67-1.61,1-1.61s.42.19.95,1.52c.66,1.57,7.15,18.22,9.68,24.17,1.57,3.77,3,4.38,3.62,4.62a4.52,4.52,0,0,0,1.63.24c.33,0,.57.1.57.34s-.2.32-.72.32-4.06,0-7.24-.09c-.91,0-1.2-.08-1.2-.33a.39.39,0,0,1,.34-.33c.19-.1.47-.34.19-1l-3.77-9.58a.43.43,0,0,0-.39-.25Zm8.11-1.66c.19,0,.19-.14.15-.29l-3.77-10.54c-.23-.67-.28-.67-.53,0l-3.57,10.54c-.1.19,0,.29.09.29Z"/><path class="cls-1" d="M172.58,185.12c0-6.29,0-7.48-.09-8.72s-.48-2-1.86-2.24c-.29,0-1-.09-1.38-.09s-.48-.14-.48-.3.28-.37.71-.37c2,0,5,.14,5.11.14.33,0,2.8-.14,5.47-.14,4.21,0,12-.43,17.07,4.66a14.12,14.12,0,0,1,4.06,10.25,16.35,16.35,0,0,1-4.54,11.41c-1.85,1.86-5.48,4.67-12.72,4.67-1.81,0-4.15-.1-6-.24s-3.3-.24-3.43-.24-.72,0-1.63,0-2,.09-2.76.09c-.42,0-.67-.09-.67-.32s.15-.34.52-.34a4.69,4.69,0,0,0,1.11-.14c.81-.14,1.09-1.15,1.23-2.2a73.22,73.22,0,0,0,.24-8.86Zm3.91,4c0,4.3,0,8,0,8.73a7.68,7.68,0,0,0,.47,3.19c.53.82,2.05,1.81,7,1.81a13.76,13.76,0,0,0,9.92-3.71c2.09-2.1,3.09-5.68,3.09-9.49a13.89,13.89,0,0,0-4.09-10.24c-4.05-4.07-8.72-4.54-13.45-4.54a8.25,8.25,0,0,0-2.42.33.78.78,0,0,0-.53.81c0,1.39,0,5.43,0,8.3Z"/><path class="cls-1" d="M207.14,188.65c0-6.34,4.9-15.82,16.68-15.82,9.45,0,16.64,5.62,16.64,15.2,0,9.11-6.72,16.55-16.87,16.55-11.68,0-16.45-8.68-16.45-15.93m28.84.58c0-9.59-5.91-14.94-12.44-14.94s-12,4.11-12,13.13c0,9.34,5.2,15.53,13.21,15.53,3.19,0,11.2-1.62,11.2-13.72"/><path class="cls-1" d="M247.8,203.53c-.62-.29-.62-.48-.62-1.63,0-2.18.14-3.81.18-4.47,0-.43.15-.67.38-.67s.34.14.34.47a6,6,0,0,0,.14,1.43c.63,3.1,3.44,4.29,6.2,4.29,4,0,5.86-2.71,5.86-5.1,0-2.71-1.23-4.38-4.71-7.2l-1.91-1.48c-4.58-3.66-5.53-6.19-5.53-9,0-4.39,3.48-7.34,8.83-7.34a18,18,0,0,1,3.85.36,6.9,6.9,0,0,0,1.62.25c.33,0,.42.1.42.29s-.18,1.86-.18,4.62c0,.72-.1,1-.34,1s-.28-.2-.33-.53a6.34,6.34,0,0,0-.57-2.24c-.24-.43-1.34-2.24-5.34-2.24-2.87,0-5,1.71-5,4.57,0,2.25,1.14,3.63,5.11,6.64l1.09.85c5,3.81,6.25,6.35,6.25,9.73a8.36,8.36,0,0,1-3.63,6.76,11.75,11.75,0,0,1-6.43,1.68,13.62,13.62,0,0,1-5.67-1.05"/><path class="cls-1" d="M325.92,192.37c0,5.48.18,8.24,1,9s1.71,1,5,1c2.09,0,4,0,5.05-1.34a6.15,6.15,0,0,0,.91-2.38c.05-.39.15-.57.37-.57s.3.13.3.61A33,33,0,0,1,338,203c-.29,1-.24,1.2-2.53,1.2-3.24,0-6.82-.24-11.59-.24-1.57,0-2.52.13-4.19.13-.48,0-.77-.09-.77-.38,0-.13.14-.28.54-.28a4.88,4.88,0,0,0,1.13-.09c.81-.15,1.1-1.1,1.24-2.25a75.67,75.67,0,0,0,.19-8.76v-7.16c0-6.29,0-7.34-.09-8.63s-.29-2.2-1.91-2.37a8.78,8.78,0,0,0-1.19-.05c-.33,0-.53-.14-.53-.34s.24-.33.72-.33c2,0,4.86.14,5,.14.66,0,3.57-.14,4.91-.14.47,0,.62.14.62.33s-.23.34-.53.34-.81.05-1.28.09c-1.34.19-1.63,1-1.72,2.33s0,2.34,0,8.63Z"/><path class="cls-1" d="M352.27,192.41a.51.51,0,0,0-.48.39l-2.09,6a12,12,0,0,0-.82,3.39c0,.85.52,1.23,1.57,1.23h.34c.43,0,.57.15.57.34s-.38.32-.72.32c-1.05,0-3.24-.13-3.77-.13s-2.56.13-4.57.13c-.52,0-.76-.09-.76-.32s.2-.34.57-.34a6.57,6.57,0,0,0,1,0c2.05-.19,2.85-1.75,3.67-3.76l9.53-25.13c.53-1.38.66-1.61,1-1.61s.42.19,1,1.52c.66,1.57,7.14,18.22,9.67,24.17,1.57,3.77,3,4.38,3.63,4.62a4.52,4.52,0,0,0,1.63.24c.32,0,.56.1.56.34s-.19.32-.72.32-4,0-7.24-.09c-.9,0-1.19-.08-1.19-.33a.38.38,0,0,1,.33-.33c.19-.1.47-.34.19-1l-3.77-9.58a.41.41,0,0,0-.38-.25Zm8.1-1.66c.19,0,.19-.14.15-.29l-3.77-10.54c-.24-.67-.29-.67-.52,0l-3.57,10.54c-.11.19,0,.29.09.29Z"/><path class="cls-1" d="M374.29,177.45c-.67-2.1-1-2.81-2.34-3.19a7.75,7.75,0,0,0-1.72-.19c-.23,0-.57-.1-.57-.39s.24-.28.72-.28c2.47,0,4.67.14,5.13.14s2.45-.14,4.68-.14c.57,0,.68.18.68.33s-.3.38-.68.38a5,5,0,0,0-1.52.18c-.43.15-.48.53-.48,1A29.93,29.93,0,0,0,379,179c.61,2.58,4.71,16.75,5.43,19l8.82-22.4c.67-1.82.9-2.05,1.14-2.05s.58.57,1.14,2.1L404,198c1.15-3.9,5.15-16,6.44-20.74a6.54,6.54,0,0,0,.39-2c0-.72-.24-1.24-2.3-1.24-.42,0-.62-.2-.62-.39s.2-.28.72-.28c1.76,0,3.67.14,4,.14s2.63-.14,3.91-.14c.39,0,.58.14.58.28s-.24.39-.63.39a8.15,8.15,0,0,0-1.23.14c-1.44.32-1.92,2.34-2.67,4.48-1.86,5.15-6.11,17.92-7.53,21.88-1.24,3.34-1.58,4-2,4s-.75-.67-1.39-2.43L393.5,180.4c-1.53,3.72-7.3,18.12-8.73,21.75-.71,1.85-1,2.43-1.48,2.43s-.71-.63-1.66-3.62Z"/><path class="cls-1" d="M429.57,193.66a7.38,7.38,0,0,0-1-4.39c-.28-.51-5.82-9.53-7.3-11.59a12.24,12.24,0,0,0-2.44-2.9,3.7,3.7,0,0,0-2.24-.71c-.28,0-.53-.14-.53-.39s.2-.28.59-.28c.76,0,4.39.14,4.48.14.28,0,1.86-.14,3.62-.14.47,0,.61.14.61.28s-.14.28-.51.39c-.67.14-.77.37-.77.75a3.86,3.86,0,0,0,.61,1.58c.63,1.18,6.93,11.3,7.64,12.49.76-1.67,6.1-10.39,6.76-11.59.92-1.57,1.11-2,1.11-2.52s-.57-.63-1.11-.71c-.36,0-.52-.2-.52-.39s.11-.28.58-.28c1.15,0,2.14.14,2.91.14.61,0,3.39-.14,4.2-.14.43,0,.56.14.56.28s-.24.39-.56.39a4.2,4.2,0,0,0-2.39.61,6.56,6.56,0,0,0-1.77,2,127.42,127.42,0,0,0-8.1,13.25,9,9,0,0,0-.48,3.77v3.48c0,.33,0,2.09.1,3.82.09,1.13.19,1.94,1.66,2.23a9.62,9.62,0,0,0,1.77.19c.37,0,.53.15.53.29s-.16.37-.58.37c-2.38,0-5.33-.13-5.47-.13s-3,.13-4.3.13c-.48,0-.67-.13-.67-.37s.14-.29.48-.29a5.28,5.28,0,0,0,1.18-.14c.82-.14,1.15-1.15,1.25-2.28.14-1.73.14-3.44.14-3.82Z"/><path class="cls-1" d="M452.83,185.12c0-6.24,0-7.38-.09-8.67s-.43-2-1.82-2.29a9.26,9.26,0,0,0-1.14-.09c-.33,0-.62-.14-.62-.3s.24-.37.72-.37c1,0,2.24.09,4.91.14.23,0,8.71,0,9.67,0a6.6,6.6,0,0,0,1.87-.24,1.5,1.5,0,0,1,.52-.14c.1,0,.18.08.18.33s-.28,1-.37,2.15c-.05.81-.1,1.58-.15,2.47,0,.44-.09.72-.32.72s-.33-.18-.33-.52a4.91,4.91,0,0,0-.34-1.53c-.29-.95-.72-1.28-3.1-1.42-.63-.06-5.34-.1-5.44-.1s-.23.1-.23.38v10.82c0,.29.05.47.28.47.57,0,5.43,0,6.43-.13s1.81-.2,2.2-.72c.2-.29.33-.38.53-.38s.19,0,.19.29-.19,1.14-.35,2.52-.14,2.29-.17,2.91c-.06.38-.15.53-.34.53s-.29-.29-.29-.62a5.69,5.69,0,0,0-.14-1.15c-.19-.62-.48-1.29-2.3-1.43-1.09-.1-5-.2-5.71-.2-.28,0-.33.15-.33.34v3.48c0,1.48-.05,5.67,0,6.49.09,1.76.33,2.66,1.33,3.09a8.87,8.87,0,0,0,3.48.44,14.41,14.41,0,0,0,3.62-.29c1.43-.42,1.77-1.38,2.14-3.15.1-.47.25-.67.44-.67s.29.43.29.72-.39,3.33-.53,4.15-.53,1.05-2.1,1.05c-3.15,0-4.48-.11-6.15-.11s-3.87-.13-5.63-.13c-1.1,0-2,.13-3.15.13-.43,0-.66-.09-.66-.32s.18-.34.43-.34a3.77,3.77,0,0,0,.95-.14c.86-.19,1.44-.81,1.53-3.77,0-1.62.09-3.57.09-7.19Z"/><path class="cls-1" d="M477.72,185.12c0-6.29,0-7.44-.11-8.72s-.43-2-1.89-2.28a7.82,7.82,0,0,0-1.15-.1c-.34,0-.53-.09-.53-.29s.15-.33.57-.33c2.05,0,5,.14,5.06.14.42,0,3.66-.14,5-.14,2.67,0,5.58.24,7.82,1.81a7.22,7.22,0,0,1,2.86,5.81c0,2.62-1.29,6-5.05,9,3.48,4.3,6.34,7.82,8.77,10.35,2.28,2.34,3.72,2.72,5.06,2.91.34,0,1.32.09,1.47.09.39,0,.53.15.53.34s-.2.32-.86.32h-3.34a10.74,10.74,0,0,1-4.34-.56c-2-.86-3.43-3-5.91-6.2-1.85-2.29-3.76-4.87-4.57-5.86a.68.68,0,0,0-.58-.29l-4.91,0c-.19,0-.24,0-.24.23V192a88.82,88.82,0,0,0,.24,9c.15,1.15.28,2.1,1.86,2.29.48,0,1,.09,1.38.09s.63.15.63.29-.19.37-.68.37c-2.47,0-5.14-.13-5.33-.13-.77,0-2.86.13-4.15.13-.48,0-.67-.09-.67-.37s.29-.29.57-.29a4.46,4.46,0,0,0,1.06-.09c.81-.15,1.09-.67,1.22-1.82a91.07,91.07,0,0,0,.21-9.19Zm3.66,3.38c0,.26.05.48.24.58a12.11,12.11,0,0,0,4.25.62,5.59,5.59,0,0,0,3.19-.72c1.43-.89,2.38-3,2.38-6,0-5.2-2.76-8.07-7-8.07a12.93,12.93,0,0,0-2.76.24.44.44,0,0,0-.29.43Z"/><path class="cls-1" d="M508.93,203.53c-.62-.29-.62-.48-.62-1.63,0-2.18.14-3.81.18-4.47.05-.43.15-.67.39-.67s.33.14.33.47a5.63,5.63,0,0,0,.15,1.43c.62,3.1,3.43,4.29,6.19,4.29,4,0,5.87-2.71,5.87-5.1,0-2.71-1.24-4.38-4.72-7.2l-1.91-1.48c-4.58-3.66-5.53-6.19-5.53-9,0-4.39,3.48-7.34,8.82-7.34a17.92,17.92,0,0,1,3.86.36,7,7,0,0,0,1.63.25c.32,0,.42.1.42.29s-.19,1.86-.19,4.62c0,.72-.09,1-.33,1s-.29-.2-.34-.53a6.13,6.13,0,0,0-.57-2.24c-.24-.43-1.33-2.24-5.33-2.24-2.87,0-5,1.71-5,4.57,0,2.25,1.14,3.63,5.1,6.64l1.1.85c5,3.81,6.24,6.35,6.24,9.73A8.34,8.34,0,0,1,521,202.9a11.76,11.76,0,0,1-6.44,1.68,13.62,13.62,0,0,1-5.67-1.05"/><path class="cls-1" d="M280.68,188.77a79.33,79.33,0,0,1,19.15,0,79.33,79.33,0,0,1-19.15,0"/><path class="cls-2" d="M418.54,102.15q0-9.06-1.13-11.63c-.68-1.7-2.53-3-5.56-3.81a24.22,24.22,0,0,0-5.14-.4c-.75,0-1.12-.31-1.12-.94s.79-1.12,2.36-1.12c2.74,0,6.28.07,10.59.21l6.28.2,5.86-.2c4-.14,6.89-.21,8.75-.21,1.58,0,2.36.38,2.36,1.12s-.41.94-1.24.94a26.35,26.35,0,0,0-3.7.4q-5.14,1-5.45,8.54c-.2,3.16-.31,8.33-.31,15.54v16.67a34.67,34.67,0,0,1-.31,6.16,3.37,3.37,0,0,1-1.65,1.85q-12.63,6.79-31.67,6.79-30.76,0-49.07-15.94A49.31,49.31,0,0,1,336.15,109a60.71,60.71,0,0,1-5.45-25.31,61.21,61.21,0,0,1,7.51-30.34A50.26,50.26,0,0,1,355.6,34.67q15-9.36,39.69-9.36A104.34,104.34,0,0,1,418,27.88a66,66,0,0,0,12.14,1.44c1.17.07,1.75.52,1.75,1.34,0-.42-.18,1.51-.52,5.76s-.51,9.39-.51,15.43c0,2-.45,3.09-1.34,3.09-.55,0-.88-.72-1-2.17a20.21,20.21,0,0,0-3.08-9.87q-3.19-4.83-11.73-8.13-10-3.9-23.35-3.91-19.55,0-32,9.77-14.72,11.73-14.71,38a62.1,62.1,0,0,0,6,26.64q4.32,9.36,9.87,14.61a53.81,53.81,0,0,0,39.09,15.94q11.63,0,17-3.08a5.43,5.43,0,0,0,3-5.24Z"/><path class="cls-2" d="M100.87,126.11q-18-16.23-18-44.12,0-24.07,16.66-40.74Q115.48,25.32,145,25.31a121.79,121.79,0,0,1,21.69,1.75q10.92,1.95,15.23,2.26c1.23.07,1.86.62,1.86,1.65l-.21,2.57q-.31,2.77-.52,5.76c-.13,1.92-.24,4.83-.3,8.74l-.11,6.69c-.21,2.05-.65,3.09-1.34,3.09s-1.23-1-1.23-3.09q0-10-6.27-15.22Q164.13,31,144,31,121,31,109.72,41.87,96.24,54.72,96.24,80.75q0,22.13,14.92,38,15.63,16.67,39,16.66,18.63,0,25.93-7.51c2.61-2.74,4.45-6.89,5.56-12.44.27-1.51.74-2.26,1.43-2.26s1,.75,1,2.26a66.59,66.59,0,0,1-3.29,19,6.53,6.53,0,0,1-3.8,4.32q-8.43,3.48-26.86,3.5-31.24,0-49.26-16.16"/><path class="cls-1" d="M216.7,43.67l2,71.39q.21,9,1.54,12.74t4.32,4.54a26.25,26.25,0,0,0,7.41.92q1.23,0,1.23.93c0,.75-.89,1.13-2.67,1.13H200.35c-1.58,0-2.37-.38-2.37-1.13s.37-.93,1.13-.93a18.48,18.48,0,0,0,6.17-.92c1.78-.48,3-2.06,3.6-4.73q.83-3.7.83-14.2l.2-85.48q0-7.39,1.65-7.4.41,0,5.14,4.73,2.82,3.19,38.08,41.16V0H192.61V142.27h62.17V85.48Q242.93,72.67,216.7,43.67"/><path class="cls-1" d="M261.49,0V73.66c.89.94,1.73,1.85,2.63,2.83q8.33,8.83,21.7,23.45,12.35,13.57,14.09,15.43l-1.54-75.81c-.15-4.94-.55-8.37-1.24-10.29a6.27,6.27,0,0,0-4.63-3.81,33.14,33.14,0,0,0-7.3-.82c-.83,0-1.23-.34-1.23-1s1-1,3-1h28.19c1.79,0,2.68.35,2.68,1s-.52,1-1.54,1a12.85,12.85,0,0,0-3.61.51,5.81,5.81,0,0,0-4.62,3.7c-.62,1.65-.92,4.84-.92,9.58l-.31,87.42q0,10.6-1.34,10.6t-10.91-9.56q-8.31-7.77-33.07-34.21v49.58h61.68V0Z"/></svg>