<svg width="1394" height="4549" viewBox="0 0 1394 4549" fill="none" xmlns="http://www.w3.org/2000/svg">
<path d="M1394 2064.31L0 1379V1797.69L1394 2483V2064.31Z" fill="#7DA0C3"/>
<path d="M1394 2750.31L0 2065V2483.69L1394 3169V2750.31Z" fill="#7DA0C3"/>
<path d="M1394 1372.31L0 687V1105.69L1394 1791V1372.31Z" fill="url(#paint0_linear_0_1)"/>
<path d="M1394 685.31L0 0V418.69L1394 1104V685.31Z" fill="url(#paint1_linear_0_1)"/>
<path d="M1394 3443.31L0 2758V3176.69L1394 3862V3443.31Z" fill="url(#paint2_linear_0_1)"/>
<path d="M1394 4130.31L0 3445V3863.69L1394 4549V4130.31Z" fill="url(#paint3_linear_0_1)"/>
<path d="M1394 2484.69L0 3170V2751.31L1394 2066V2484.69Z" fill="#226093"/>
<path d="M1394 1105.69L0 1791V1372.31L1394 687V1105.69Z" fill="#226093"/>
<path d="M1394 1797.69L0 2483V2064.31L1394 1379V1797.69Z" fill="#226093"/>
<path d="M1394 3176.69L0 3862V3443.31L1394 2758V3176.69Z" fill="#226093"/>
<defs>
<linearGradient id="paint0_linear_0_1" x1="1194.5" y1="1448" x2="2.522e-05" y2="687" gradientUnits="userSpaceOnUse">
<stop stop-color="#7DA0C3"/>
<stop offset="0.833354" stop-color="#7DA0C3" stop-opacity="0"/>
</linearGradient>
<linearGradient id="paint1_linear_0_1" x1="1546" y1="1029.5" x2="4.33327e-05" y2="-105.5" gradientUnits="userSpaceOnUse">
<stop stop-color="#7DA0C3"/>
<stop offset="0.717339" stop-color="#7DA0C3" stop-opacity="0"/>
</linearGradient>
<linearGradient id="paint2_linear_0_1" x1="437.5" y1="2948" x2="1280.5" y2="3862" gradientUnits="userSpaceOnUse">
<stop stop-color="#7DA0C3"/>
<stop offset="0.852288" stop-color="#7DA0C3" stop-opacity="0"/>
</linearGradient>
<linearGradient id="paint3_linear_0_1" x1="165.5" y1="3445" x2="1267.5" y2="4549" gradientUnits="userSpaceOnUse">
<stop stop-color="#7DA0C3"/>
<stop offset="0.728183" stop-color="#7DA0C3" stop-opacity="0"/>
</linearGradient>
</defs>
</svg>

